<?xml version="1.0" encoding="UTF-8"?>
<svg id="Layer_1" data-name="Layer 1" xmlns="http://www.w3.org/2000/svg" viewBox="0 0 244 45.28">
  <defs>
    <style>
      .cls-1 {
        letter-spacing: .03em;
      }

      .cls-2 {
        letter-spacing: .04em;
      }

      .cls-3 {
        letter-spacing: .04em;
      }

      .cls-4 {
        letter-spacing: .1em;
      }

      .cls-5 {
        font-family: Montserrat-SemiBold, Montserrat;
        font-size: 5.73px;
        font-variation-settings: 'wght' 600;
        font-weight: 600;
      }

      .cls-6 {
        fill: #fbae17;
      }

      .cls-7 {
        letter-spacing: .07em;
      }

      .cls-8 {
        letter-spacing: .04em;
      }

      .cls-9 {
        letter-spacing: .06em;
      }

      .cls-10 {
        letter-spacing: .02em;
      }

      .cls-11 {
        letter-spacing: .08em;
      }

      .cls-12 {
        fill: #19226d;
      }

      .cls-13 {
        letter-spacing: .07em;
      }
    </style>
  </defs>
  <path class="cls-12" d="M24.42,23.19c-.35,1.27-.88,2.35-1.6,3.26-1.4,1.76-3.29,2.64-5.68,2.64s-4.19-.9-5.62-2.71c-1.43-1.81-2.14-4.27-2.14-7.37s.71-5.53,2.14-7.39c1.43-1.86,3.36-2.79,5.79-2.79s4.22.9,5.57,2.71c.67.89,1.17,1.96,1.51,3.2h7.46c-.56-3-1.8-5.53-3.71-7.6-2.71-2.93-6.26-4.4-10.64-4.4-4.64,0-8.37,1.53-11.19,4.6-2.82,3.06-4.22,7.08-4.22,12.04,0,4.7,1.39,8.51,4.16,11.43,2.77,2.93,6.36,4.39,10.76,4.39s8.18-1.51,10.99-4.53c1.91-2.05,3.16-4.54,3.78-7.47h-7.35Z"/>
  <g>
    <path class="cls-12" d="M59.56,23.2s0,.07,0,.11c.03.72.07,1.27.13,1.63h-.09c-.23-.42-.48-.85-.74-1.28-.09-.15-.19-.3-.29-.46h-6.87l7.36,11.45h6.99v-11.45h-6.5Z"/>
    <rect class="cls-12" x="59.52" y="3.27" width="6.54" height="11.47"/>
    <path class="cls-12" d="M44.91,14.75c0-.11,0-.21,0-.31-.03-.85-.07-1.55-.13-2.1h.09c.14.29.34.65.6,1.08.23.38.5.83.82,1.33h6.91l-7.33-11.47h-7.46v11.47h6.51Z"/>
    <rect class="cls-12" x="38.41" y="23.2" width="6.54" height="11.45"/>
  </g>
  <g>
    <polygon class="cls-12" points="81.11 14.75 81.11 9.03 91.92 9.03 91.92 3.27 74.19 3.27 74.19 14.75 81.11 14.75"/>
    <polygon class="cls-12" points="81.11 23.2 74.19 23.2 74.19 34.65 92.62 34.65 92.62 28.92 81.11 28.92 81.11 23.2"/>
  </g>
  <g>
    <polygon class="cls-12" points="105.9 14.75 105.9 9.03 116.75 9.03 116.75 3.27 98.97 3.27 98.97 14.75 105.9 14.75"/>
    <rect class="cls-12" x="98.97" y="23.2" width="6.92" height="11.45"/>
  </g>
  <g>
    <polygon class="cls-12" points="129.83 28.92 129.83 23.2 122.9 23.2 122.9 34.65 141.21 34.65 141.21 28.92 129.83 28.92"/>
    <rect class="cls-12" x="122.9" y="3.27" width="6.92" height="11.47"/>
  </g>
  <g>
    <path class="cls-12" d="M150.93,14.74c.36-1.18.88-2.23,1.57-3.13,1.43-1.86,3.36-2.79,5.79-2.79s4.22.9,5.57,2.71c.67.89,1.17,1.96,1.51,3.2h7.46c-.56-3-1.8-5.53-3.71-7.6-2.71-2.93-6.26-4.4-10.64-4.4-4.64,0-8.37,1.53-11.19,4.6-1.88,2.05-3.13,4.51-3.76,7.4h7.39Z"/>
    <path class="cls-12" d="M165.4,23.19c-.35,1.27-.88,2.35-1.6,3.26-1.4,1.76-3.29,2.64-5.68,2.64s-4.19-.9-5.62-2.71c-.71-.9-1.24-1.96-1.6-3.18h-7.49c.57,2.99,1.84,5.53,3.82,7.61,2.77,2.93,6.36,4.39,10.76,4.39s8.18-1.51,10.99-4.53c1.91-2.05,3.16-4.54,3.78-7.47h-7.35Z"/>
  </g>
  <g>
    <path class="cls-12" d="M196.38,14.75l.06-.23c.13-.47.24-.99.33-1.58.09-.58.17-1.23.23-1.95h.09c.03.64.09,1.26.17,1.85s.19,1.15.32,1.67l.06.23h6.29l-2.74-11.47h-7.42l-3.07,11.47h5.69Z"/>
    <polygon class="cls-12" points="215.51 14.75 218.48 3.27 211.49 3.27 209.16 14.75 215.51 14.75"/>
    <path class="cls-12" d="M188.42,23.2l-.24.88c-.17.66-.31,1.29-.42,1.9-.11.61-.18,1.2-.2,1.77h-.13c-.04-.76-.1-1.43-.16-2.02s-.15-1.11-.25-1.56l-.2-.97h-6.56l2.95,11.45h8l2.98-11.45h-5.76Z"/>
    <polygon class="cls-12" points="185.08 14.75 182.7 3.27 175.13 3.27 178.09 14.75 185.08 14.75"/>
    <path class="cls-12" d="M207.45,23.2l-.21,1.01c-.11.6-.21,1.19-.29,1.76-.08.58-.13,1.16-.16,1.74h-.09c-.07-.73-.15-1.38-.24-1.95-.09-.57-.17-1.04-.26-1.42l-.27-1.15h-6.17l2.9,11.45h7.67l2.97-11.45h-5.87Z"/>
  </g>
  <g>
    <ellipse class="cls-6" cx="17.34" cy="18.96" rx="4.28" ry="5.68"/>
    <rect class="cls-6" x="17.34" y="18.46" width="94.38" height="1"/>
    <rect class="cls-6" x="81.9" y="16.1" width="10.05" height="5.73"/>
    <rect class="cls-6" x="106.69" y="16.1" width="10.05" height="5.73"/>
    <ellipse class="cls-6" cx="158.12" cy="18.96" rx="4.28" ry="5.68"/>
    <rect class="cls-6" x="111.71" y="18.46" width="123.28" height="1"/>
    <rect class="cls-6" x="229.02" y="16.1" width="11.94" height="5.73"/>
  </g>
  <g>
    <polygon class="cls-12" points="230.4 28.92 230.4 23.2 223.48 23.2 223.48 34.65 241.91 34.65 241.91 28.92 230.4 28.92"/>
    <polygon class="cls-12" points="230.4 14.75 230.4 9.03 241.21 9.03 241.21 3.27 223.48 3.27 223.48 14.75 230.4 14.75"/>
  </g>
  <text class="cls-5" transform="translate(2.14 42.39) scale(1.01 1)"><tspan class="cls-3" x="0" y="0">Y</tspan><tspan class="cls-11" x="4.04" y="0">OUR DIGI</tspan><tspan class="cls-2" x="35.4" y="0">T</tspan><tspan class="cls-7" x="39.08" y="0">AL G</tspan><tspan class="cls-2" x="54.53" y="0">A</tspan><tspan class="cls-11" x="59.05" y="0">T</tspan><tspan class="cls-9" x="62.92" y="0">E</tspan><tspan class="cls-8" x="67.13" y="0">W</tspan><tspan class="cls-10" x="73.91" y="0">A</tspan><tspan class="cls-11" x="78.33" y="0">Y </tspan><tspan class="cls-9" x="84.56" y="0">T</tspan><tspan class="cls-11" x="88.38" y="0">O SEAMLES</tspan><tspan class="cls-4" x="126.72" y="0">S</tspan><tspan class="cls-11" x="130.87" y="0">, TRANS</tspan><tspan class="cls-1" x="157.03" y="0">P</tspan><tspan class="cls-11" x="161.36" y="0">ARENT </tspan><tspan class="cls-9" x="185.93" y="0">P</tspan><tspan class="cls-11" x="190.46" y="0">RO</tspan><tspan class="cls-13" x="200.33" y="0">C</tspan><tspan class="cls-11" x="204.86" y="0">UREMENT</tspan></text>
</svg>